<mxfile host="app.diagrams.net" modified="2024-06-21T15:47:05.906Z" agent="Mozilla/5.0 (Windows NT 10.0; Win64; x64) AppleWebKit/537.36 (KHTML, like Gecko) Chrome/124.0.0.0 Safari/537.36" etag="LvNBVlzbRFfrot398oca" border="50" scale="3" compressed="false" locked="false" version="24.6.0" type="github">
  <diagram name="Blank" id="YmL12bMKpDGza6XwsDPr">
    <mxGraphModel dx="794" dy="1339" grid="0" gridSize="10" guides="1" tooltips="1" connect="1" arrows="1" fold="1" page="0" pageScale="1" pageWidth="827" pageHeight="1169" background="none" math="1" shadow="0">
      <root>
        <mxCell id="X5NqExCQtvZxIxQ7pmgY-0" />
        <mxCell id="1" parent="X5NqExCQtvZxIxQ7pmgY-0" />
        <mxCell id="V9AeguA6OpkIGnoR7XHr-4" value="" style="edgeStyle=orthogonalEdgeStyle;rounded=0;orthogonalLoop=1;jettySize=auto;html=1;labelBackgroundColor=none;strokeColor=#0B4D6A;fontColor=default;curved=1;exitX=1;exitY=0.5;exitDx=0;exitDy=0;" edge="1" parent="1" source="V9AeguA6OpkIGnoR7XHr-1" target="V9AeguA6OpkIGnoR7XHr-2">
          <mxGeometry relative="1" as="geometry">
            <Array as="points">
              <mxPoint x="291" y="-99" />
              <mxPoint x="291" y="-199" />
            </Array>
          </mxGeometry>
        </mxCell>
        <mxCell id="V9AeguA6OpkIGnoR7XHr-6" value="" style="edgeStyle=orthogonalEdgeStyle;rounded=0;orthogonalLoop=1;jettySize=auto;html=1;labelBackgroundColor=none;strokeColor=#0B4D6A;fontColor=default;curved=1;" edge="1" parent="1" source="V9AeguA6OpkIGnoR7XHr-1" target="V9AeguA6OpkIGnoR7XHr-5">
          <mxGeometry relative="1" as="geometry">
            <Array as="points">
              <mxPoint x="277" y="5" />
            </Array>
          </mxGeometry>
        </mxCell>
        <mxCell id="V9AeguA6OpkIGnoR7XHr-1" value="模型&lt;span style=&quot;background-color: initial;&quot;&gt;工件上添加自定义五金&lt;/span&gt;" style="rounded=0;whiteSpace=wrap;html=1;labelBackgroundColor=none;fillColor=#09555B;strokeColor=#BAC8D3;fontColor=#EEEEEE;" vertex="1" parent="1">
          <mxGeometry x="110" y="-127" width="180" height="36" as="geometry" />
        </mxCell>
        <mxCell id="V9AeguA6OpkIGnoR7XHr-17" value="" style="edgeStyle=orthogonalEdgeStyle;rounded=0;orthogonalLoop=1;jettySize=auto;html=1;strokeColor=#0B4D6A;curved=1;exitX=1;exitY=0.5;exitDx=0;exitDy=0;" edge="1" parent="1" source="V9AeguA6OpkIGnoR7XHr-2" target="V9AeguA6OpkIGnoR7XHr-16">
          <mxGeometry relative="1" as="geometry">
            <Array as="points">
              <mxPoint x="481" y="-200" />
              <mxPoint x="481" y="-314" />
            </Array>
          </mxGeometry>
        </mxCell>
        <mxCell id="V9AeguA6OpkIGnoR7XHr-21" value="" style="edgeStyle=orthogonalEdgeStyle;rounded=0;orthogonalLoop=1;jettySize=auto;html=1;strokeColor=#0B4D6A;curved=1;" edge="1" parent="1" source="V9AeguA6OpkIGnoR7XHr-2" target="V9AeguA6OpkIGnoR7XHr-20">
          <mxGeometry relative="1" as="geometry" />
        </mxCell>
        <mxCell id="V9AeguA6OpkIGnoR7XHr-2" value="五金的供应商与工件供应商一致" style="rounded=0;whiteSpace=wrap;html=1;labelBackgroundColor=none;fillColor=#09555B;strokeColor=#BAC8D3;fontColor=#EEEEEE;" vertex="1" parent="1">
          <mxGeometry x="338" y="-219" width="102" height="37" as="geometry" />
        </mxCell>
        <mxCell id="V9AeguA6OpkIGnoR7XHr-29" value="" style="edgeStyle=orthogonalEdgeStyle;rounded=0;orthogonalLoop=1;jettySize=auto;html=1;strokeColor=#0B4D6A;curved=1;" edge="1" parent="1" source="V9AeguA6OpkIGnoR7XHr-5" target="V9AeguA6OpkIGnoR7XHr-28">
          <mxGeometry relative="1" as="geometry" />
        </mxCell>
        <mxCell id="V9AeguA6OpkIGnoR7XHr-5" value="五金供应商与工件供应商不同&amp;nbsp;" style="rounded=0;whiteSpace=wrap;html=1;labelBackgroundColor=none;fillColor=#09555B;strokeColor=#BAC8D3;fontColor=#EEEEEE;" vertex="1" parent="1">
          <mxGeometry x="343" y="-10" width="164" height="37" as="geometry" />
        </mxCell>
        <mxCell id="V9AeguA6OpkIGnoR7XHr-19" value="" style="edgeStyle=orthogonalEdgeStyle;rounded=0;orthogonalLoop=1;jettySize=auto;html=1;strokeColor=#0B4D6A;curved=1;" edge="1" parent="1" source="V9AeguA6OpkIGnoR7XHr-16" target="V9AeguA6OpkIGnoR7XHr-18">
          <mxGeometry relative="1" as="geometry" />
        </mxCell>
        <mxCell id="V9AeguA6OpkIGnoR7XHr-16" value="自定义五金关联到模型外" style="rounded=0;whiteSpace=wrap;html=1;labelBackgroundColor=none;fillColor=#09555B;strokeColor=#BAC8D3;fontColor=#EEEEEE;" vertex="1" parent="1">
          <mxGeometry x="523" y="-326" width="102" height="47" as="geometry" />
        </mxCell>
        <mxCell id="V9AeguA6OpkIGnoR7XHr-25" value="" style="edgeStyle=orthogonalEdgeStyle;rounded=0;orthogonalLoop=1;jettySize=auto;html=1;strokeColor=#0B4D6A;curved=1;" edge="1" parent="1" source="V9AeguA6OpkIGnoR7XHr-18" target="V9AeguA6OpkIGnoR7XHr-24">
          <mxGeometry relative="1" as="geometry" />
        </mxCell>
        <mxCell id="V9AeguA6OpkIGnoR7XHr-44" value="" style="edgeStyle=orthogonalEdgeStyle;rounded=0;orthogonalLoop=1;jettySize=auto;html=1;strokeColor=#0B4D6A;curved=1;" edge="1" parent="1" source="V9AeguA6OpkIGnoR7XHr-18" target="V9AeguA6OpkIGnoR7XHr-43">
          <mxGeometry relative="1" as="geometry" />
        </mxCell>
        <mxCell id="V9AeguA6OpkIGnoR7XHr-18" value="五金及其产生的所有加工被标识为关联到外部（如果加工对象处于模型内&lt;span style=&quot;background-color: initial;&quot;&gt;），模型可以整体下单&lt;/span&gt;" style="rounded=0;whiteSpace=wrap;html=1;labelBackgroundColor=none;fillColor=#09555B;strokeColor=#BAC8D3;fontColor=#EEEEEE;" vertex="1" parent="1">
          <mxGeometry x="708" y="-418" width="164" height="102" as="geometry" />
        </mxCell>
        <mxCell id="V9AeguA6OpkIGnoR7XHr-23" value="" style="edgeStyle=orthogonalEdgeStyle;rounded=0;orthogonalLoop=1;jettySize=auto;html=1;strokeColor=#0B4D6A;curved=1;" edge="1" parent="1" source="V9AeguA6OpkIGnoR7XHr-20" target="V9AeguA6OpkIGnoR7XHr-22">
          <mxGeometry relative="1" as="geometry" />
        </mxCell>
        <mxCell id="V9AeguA6OpkIGnoR7XHr-20" value="&amp;nbsp;自定义五金关联到模型内" style="rounded=0;whiteSpace=wrap;html=1;labelBackgroundColor=none;fillColor=#09555B;strokeColor=#BAC8D3;fontColor=#EEEEEE;" vertex="1" parent="1">
          <mxGeometry x="520" y="-219" width="102" height="37" as="geometry" />
        </mxCell>
        <mxCell id="V9AeguA6OpkIGnoR7XHr-27" value="" style="edgeStyle=orthogonalEdgeStyle;rounded=0;orthogonalLoop=1;jettySize=auto;html=1;strokeColor=#0B4D6A;curved=1;" edge="1" parent="1" source="V9AeguA6OpkIGnoR7XHr-22" target="V9AeguA6OpkIGnoR7XHr-26">
          <mxGeometry relative="1" as="geometry" />
        </mxCell>
        <mxCell id="V9AeguA6OpkIGnoR7XHr-22" value="五金关联到外部的标识为false,模型可以整体下单" style="rounded=0;whiteSpace=wrap;html=1;labelBackgroundColor=none;fillColor=#09555B;strokeColor=#BAC8D3;fontColor=#EEEEEE;" vertex="1" parent="1">
          <mxGeometry x="702" y="-242" width="102" height="60" as="geometry" />
        </mxCell>
        <mxCell id="V9AeguA6OpkIGnoR7XHr-24" value="在此基础上自定义五金与外部对象发生了碰撞偏移，不影响模型的整体下单" style="rounded=0;whiteSpace=wrap;html=1;labelBackgroundColor=none;fillColor=#09555B;strokeColor=#BAC8D3;fontColor=#EEEEEE;" vertex="1" parent="1">
          <mxGeometry x="955" y="-496" width="164" height="78" as="geometry" />
        </mxCell>
        <mxCell id="V9AeguA6OpkIGnoR7XHr-26" value="在此基础上自定义五金发生碰撞偏移（无论与内部还是外部对象），相当于再次手动编辑了自定义五金的位置，依然不影响模型整体下单" style="rounded=0;whiteSpace=wrap;html=1;labelBackgroundColor=none;fillColor=#09555B;strokeColor=#BAC8D3;fontColor=#EEEEEE;" vertex="1" parent="1">
          <mxGeometry x="884" y="-256.5" width="168" height="89" as="geometry" />
        </mxCell>
        <mxCell id="V9AeguA6OpkIGnoR7XHr-34" value="" style="edgeStyle=orthogonalEdgeStyle;rounded=0;orthogonalLoop=1;jettySize=auto;html=1;strokeColor=#0B4D6A;curved=1;" edge="1" parent="1" source="V9AeguA6OpkIGnoR7XHr-28" target="V9AeguA6OpkIGnoR7XHr-33">
          <mxGeometry relative="1" as="geometry" />
        </mxCell>
        <mxCell id="V9AeguA6OpkIGnoR7XHr-37" value="" style="edgeStyle=orthogonalEdgeStyle;rounded=0;orthogonalLoop=1;jettySize=auto;html=1;strokeColor=#0B4D6A;curved=1;" edge="1" parent="1" source="V9AeguA6OpkIGnoR7XHr-28" target="V9AeguA6OpkIGnoR7XHr-36">
          <mxGeometry relative="1" as="geometry" />
        </mxCell>
        <mxCell id="V9AeguA6OpkIGnoR7XHr-28" value="&amp;nbsp;自定义五金关联组件外部属性被设置为true" style="rounded=0;whiteSpace=wrap;html=1;labelBackgroundColor=none;fillColor=#09555B;strokeColor=#BAC8D3;fontColor=#EEEEEE;" vertex="1" parent="1">
          <mxGeometry x="587" y="-33" width="164" height="60" as="geometry" />
        </mxCell>
        <mxCell id="V9AeguA6OpkIGnoR7XHr-39" value="" style="edgeStyle=orthogonalEdgeStyle;rounded=0;orthogonalLoop=1;jettySize=auto;html=1;strokeColor=#0B4D6A;curved=1;" edge="1" parent="1" source="V9AeguA6OpkIGnoR7XHr-33" target="V9AeguA6OpkIGnoR7XHr-38">
          <mxGeometry relative="1" as="geometry" />
        </mxCell>
        <mxCell id="V9AeguA6OpkIGnoR7XHr-33" value="自定义五金关联到模型外" style="rounded=0;whiteSpace=wrap;html=1;labelBackgroundColor=none;fillColor=#09555B;strokeColor=#BAC8D3;fontColor=#EEEEEE;" vertex="1" parent="1">
          <mxGeometry x="798" y="-115" width="159" height="57" as="geometry" />
        </mxCell>
        <mxCell id="V9AeguA6OpkIGnoR7XHr-42" value="" style="edgeStyle=orthogonalEdgeStyle;rounded=0;orthogonalLoop=1;jettySize=auto;html=1;strokeColor=#0B4D6A;curved=1;" edge="1" parent="1" source="V9AeguA6OpkIGnoR7XHr-36" target="V9AeguA6OpkIGnoR7XHr-41">
          <mxGeometry relative="1" as="geometry" />
        </mxCell>
        <mxCell id="V9AeguA6OpkIGnoR7XHr-36" value="自定义五金关联到模型内" style="rounded=0;whiteSpace=wrap;html=1;labelBackgroundColor=none;fillColor=#09555B;strokeColor=#BAC8D3;fontColor=#EEEEEE;" vertex="1" parent="1">
          <mxGeometry x="793" y="83" width="164" height="60" as="geometry" />
        </mxCell>
        <mxCell id="V9AeguA6OpkIGnoR7XHr-38" value="自定义五金产生的所有加工的关联外部属性设置为true(当被加工的对象为模型内对象时)" style="rounded=0;whiteSpace=wrap;html=1;labelBackgroundColor=none;fillColor=#09555B;strokeColor=#BAC8D3;fontColor=#EEEEEE;" vertex="1" parent="1">
          <mxGeometry x="1035" y="-140" width="159" height="57" as="geometry" />
        </mxCell>
        <mxCell id="V9AeguA6OpkIGnoR7XHr-40" value="" style="endArrow=classic;html=1;rounded=0;strokeColor=#0B4D6A;entryX=0;entryY=0.5;entryDx=0;entryDy=0;exitX=1;exitY=0.5;exitDx=0;exitDy=0;curved=1;" edge="1" parent="1" source="V9AeguA6OpkIGnoR7XHr-36" target="V9AeguA6OpkIGnoR7XHr-38">
          <mxGeometry width="50" height="50" relative="1" as="geometry">
            <mxPoint x="875" y="73" as="sourcePoint" />
            <mxPoint x="925" y="23" as="targetPoint" />
            <Array as="points">
              <mxPoint x="1016" y="59" />
              <mxPoint x="989" y="-47" />
            </Array>
          </mxGeometry>
        </mxCell>
        <mxCell id="V9AeguA6OpkIGnoR7XHr-41" value="模型内五金没有与自定义五金发生碰撞偏移时，模型可以整体下单" style="rounded=0;whiteSpace=wrap;html=1;labelBackgroundColor=none;fillColor=#09555B;strokeColor=#BAC8D3;fontColor=#EEEEEE;" vertex="1" parent="1">
          <mxGeometry x="1037" y="83" width="164" height="60" as="geometry" />
        </mxCell>
        <mxCell id="V9AeguA6OpkIGnoR7XHr-43" value="在此基础上模型内五金与自定义五金发生碰撞偏移，模型无法整体下单" style="rounded=0;whiteSpace=wrap;html=1;labelBackgroundColor=none;fillColor=#09555B;strokeColor=#BAC8D3;fontColor=#EEEEEE;" vertex="1" parent="1">
          <mxGeometry x="955" y="-373" width="164" height="76" as="geometry" />
        </mxCell>
        <mxCell id="V9AeguA6OpkIGnoR7XHr-45" value="&lt;font color=&quot;#ffffff&quot; size=&quot;1&quot;&gt;&lt;span style=&quot;font-size: 16px; background-color: rgb(48, 79, 74);&quot;&gt;总结起来，当模型内五金与关联到外部属性为true的其它五金发生碰撞偏移时，五金所在模型无法整体下单&lt;/span&gt;&lt;/font&gt;" style="text;html=1;align=center;verticalAlign=middle;whiteSpace=wrap;rounded=0;fontColor=#EEEEEE;" vertex="1" parent="1">
          <mxGeometry x="354" y="216" width="315" height="52" as="geometry" />
        </mxCell>
      </root>
    </mxGraphModel>
  </diagram>
</mxfile>
